<?xml version="1.0" encoding="UTF-8"?>
<svg xmlns="http://www.w3.org/2000/svg" width="768" height="768" viewBox="0 0 768 768">
  <defs>
    <linearGradient id="g" x1="0" y1="0" x2="1" y2="1">
      <stop offset="0%" stop-color="#7C3AED"/>
      <stop offset="50%" stop-color="#2563EB"/>
      <stop offset="100%" stop-color="#06B6D4"/>
    </linearGradient>
    <style>
      .brand { font: 700 120px system-ui, sans-serif; fill: #fff; }
    </style>
  </defs>

  <!-- Ticket Shape filling full square -->
  <path d="M0 96 H768
           a72 72 0 0 1 72 72
           v60
           a96 96 0 0 0 0 192
           v60
           a72 72 0 0 1 -72 72
           H0
           a72 72 0 0 1 -72 -72
           v-60
           a96 96 0 0 0 0 -192
           v-60
           a72 72 0 0 1 72 -72 Z"
        fill="url(#g)"/>

  <!-- Play Icon -->
  <circle cx="240" cy="384" r="108" fill="white" opacity="0.95"/>
  <polygon points="192,312 312,384 192,456" fill="url(#g)"/>

  <!-- Brand Text -->
  <text class="brand" x="384" y="420">SRH</text>
</svg>
